<svg version="1.1" id="Calque_1" xmlns="http://www.w3.org/2000/svg" x="0" y="0" viewBox="0 0 237 52.1" style="enable-background:new 0 0 237 52.1" xml:space="preserve"><style>.st0{fill:#ff6b4c}</style><path class="st0" d="M16.1 7.2C15.2 5 13 3.1 9.9 3.1 6 3.1 3.2 6.2 3.2 10s2.9 6.8 6.7 6.8c3.1 0 5.3-1.9 6.2-4l2.7 1.6c-1.5 3.1-4.7 5.5-8.9 5.5C4.2 19.9 0 15.6 0 10S4.2 0 9.9 0c3.8 0 7.2 2 8.9 5.5l-2.7 1.7zm24.2 2.9c0 5.5-4.3 9.9-9.9 9.9s-9.9-4.3-9.9-9.9 4.3-10 9.9-10 9.9 4.4 9.9 10m-3.2 0c0-3.8-2.9-6.9-6.8-6.9s-6.7 3.1-6.7 6.9 2.9 6.8 6.7 6.8c3.9 0 6.8-3 6.8-6.8"/><path d="M43.4 19.7V.4h4l5.9 12.8 6-12.8h4v19.3h-3.2V4.9l-5.4 12.2H52L46.5 4.9l.1 14.8h-3.2zm24.4 0V.4h4l6 12.8L83.7.4h4v19.3h-3.1V4.9l-5.5 12.2h-2.6L71 4.9v14.8h-3.2zm86.7-12.5c-.9-2.2-3.1-4.1-6.2-4.1-3.9 0-6.7 3.1-6.7 6.9s2.8 6.8 6.7 6.8c3.1 0 5.3-1.9 6.2-4l2.7 1.6c-1.5 3.1-4.7 5.5-8.9 5.5-5.7 0-9.9-4.3-9.9-9.9s4.2-10 9.9-10c3.8 0 7.2 2 8.9 5.5l-2.7 1.7zM164.9.3h3.9l6.3 19.4h-3.4l-1.4-4.5h-7l-1.4 4.5h-3.4L164.9.3zm4.7 12-2.8-8.4-2.8 8.4h5.6zm9.9 7.4V3.4l-5.8.1V.4h14.7v3.1l-5.7-.1v16.3h-3.2zM191.6.4h3.2v19.4h-3.2V.4zm-41.8 32.1h3.9l6.3 19.4h-3.4l-1.4-4.5h-7l-1.4 4.5h-3.4l6.4-19.4zm4.7 11.9-2.8-8.4-2.8 8.4h5.6zm9.9 7.5V35.6h-5.7v-3.1h14.7v3.1h-5.8v16.3h-3.2zm12.2-19.4h3.2v19.4h-3.2V32.5zm41.2-22.4c0 5.5-4.3 9.9-9.9 9.9-5.6 0-9.9-4.3-9.9-9.9s4.3-10 9.9-10c5.6 0 9.9 4.4 9.9 10m-3.2 0c0-3.8-2.9-6.9-6.8-6.9s-6.7 3.1-6.7 6.9 2.9 6.8 6.7 6.8c3.9 0 6.8-3 6.8-6.8M233.8.4v13.8L223.7.4h-2.8v19.3h3.2V6l10.1 13.7h2.8V.4h-3.2zM76 32.5l-5.9 12.9-6-12.9h-4v19.4h3.2L63.2 37l5.6 12.3h2.6L76.9 37l-.1 14.9H80V32.5h-4zm27.1 9.7c0 5.5-4.3 9.9-9.9 9.9-5.6 0-9.9-4.3-9.9-9.9s4.3-10 9.9-10c5.6 0 9.9 4.4 9.9 10m-3.2 0c0-3.8-2.9-6.9-6.8-6.9s-6.7 3.1-6.7 6.9 2.9 6.8 6.7 6.8c3.9.1 6.8-3 6.8-6.8m22.1-2.8c-.9-2.2-3.1-4.1-6.2-4.1-3.9 0-6.7 3.1-6.7 6.9s2.9 6.8 6.7 6.8c3.1 0 5.3-1.9 6.2-4l2.7 1.6c-1.5 3.1-4.7 5.5-8.9 5.5-5.7 0-9.9-4.3-9.9-9.9s4.2-10 9.9-10c3.8 0 7.2 2 8.9 5.5l-2.7 1.7zm12.3-6.9c3.8 0 6.4 2.8 6.4 6.3 0 3.4-2.4 4.9-4.2 5.6l4.7 7.4h-3.6l-4-6.7h-2.9v6.7h-3.2V32.5h6.8zm-3.6 9.8h3c2.5 0 3.9-1.6 3.9-3.5s-1.4-3.5-3.9-3.5h-3v7zm53.5-9.8v19.4h11.9v-3.1h-8.7v-5.2h7.7v-2.8h-7.7v-5.2h8.7v-3.1h-11.9z"/><path class="st0" d="M23.4 32.5h7.1c5.5 0 9.7 4.3 9.7 9.7 0 5.3-4.2 9.7-9.7 9.7h-7.1V32.5zm7.1 16.3c3.7 0 6.7-2.9 6.7-6.6 0-3.8-3-6.6-6.7-6.6h-3.8v13.2h3.8zm12.9-16.3v19.4h11.8v-3.1h-8.6v-5.2h7.7v-2.8h-7.7v-5.2h8.6v-3.1H43.4z"/><path d="M48.9 29.3h6.3v-3.2l-6.3 3.2zm43.2-17V.4h3.2v11.4c0 3.8 1.4 5.2 4.4 5.2s4.4-1.4 4.4-5.2V.4h3.2v11.9c0 5-2.7 7.8-7.6 7.8-5-.1-7.6-2.9-7.6-7.8m19-11.9h2.8l10.2 13.8V.4h3.2v19.3h-2.8L114.3 6v13.7h-3.2V.4zm20.5 0h3.2v19.4h-3.2V.4zM2.7 46.6c0-1.1.5-1.9 1.4-2.4.2-.1.3-.2.5-.3.1 0 .2-.1.2-.1.2-.1.4-.2.6-.2.1 0 .2-.1.2-.1.2-.1.5-.1.8-.2h.2c.3-.1.7-.1 1-.2l.1.1c1 1 2 1.9 2.9 2.9-1.4 1.8-2.7 3.4-5 3.4-.2 0-.5 0-.7-.1h-.2c-.2-.1-.5-.1-.7-.3-.7-.5-1.3-1.2-1.3-2.5m11.1-1.2c1.1-1.1 2.4-1.9 4.3-2V41c-2.8.2-4.5 1.4-5.8 2.9l-2.8-2.8c-2.1-2-3.7-4.3-2.3-5.8.4-.4 1-.6 1.7-.6 1.2 0 2.8.5 4 1.1l1.1-2.3c-1.7-.7-3.6-1.3-5.2-1.3-1.4 0-2.7.4-3.6 1.3-2.1 2.2-1.4 5 .7 7.6-.6.1-1.1.3-1.6.5-.1 0-.1 0-.2.1-2.6 1-4 2.9-4 5.3s1.3 4.5 4 5c.4.1.8.1 1.3.1 3.5 0 5-2.4 6.7-4.7 3 2.9 4.3 3.7 4.3 3.7 1 .7 1.7.7 1.7.7v-2.3c-.8-.7-2.3-2.2-4.3-4.1"/></svg>
