<svg viewBox="0 0 221 45" fill="none" xmlns="http://www.w3.org/2000/svg"><path d="M35.667 6.518a5.748 5.748 0 0 0-7.604-2.885 5.748 5.748 0 0 0-2.885 7.603 5.748 5.748 0 0 0 10.489 0l2.3 1.374a8.261 8.261 0 0 1-7.508 4.627 8.368 8.368 0 0 1-8.357-8.377C22.107 4.238 25.859.497 30.479.5a8.375 8.375 0 0 1 7.488 4.652l-2.3 1.366Z" fill="#FF6B4C"/><path d="M55.939 8.892A8.332 8.332 0 1 1 47.596.5a8.25 8.25 0 0 1 8.343 8.156v.236Zm-2.647 0a5.676 5.676 0 1 0-11.343 0 5.59 5.59 0 0 0 5.438 5.738c.071 0 .14.002.211 0a5.658 5.658 0 0 0 5.697-5.618v-.12" fill="#FF6B4C"/><path d="M58.546 17.002V.73h3.37l4.973 10.808L71.885.73h3.347V17h-2.649l.025-12.48-4.603 10.296h-2.21L61.169 4.52l.047 12.482h-2.671.002ZM79.06 17.002V.73h3.372l4.974 10.808L92.404.73h3.345V17h-2.654l.03-12.48-4.598 10.296h-2.212L81.692 4.52l.047 12.482h-2.678ZM99.426 10.728V.73h2.673v9.554c0 3.185 1.163 4.348 3.694 4.348 2.531 0 3.696-1.163 3.696-4.348V.731h2.654v9.997c0 4.182-2.256 6.507-6.348 6.507-4.091 0-6.367-2.325-6.367-6.507M115.612.73h2.347l8.53 11.624V.732h2.652V17h-2.325l-8.532-11.505V17h-2.669V.732h-.003ZM135.437.73h-2.676v16.271h2.676V.732ZM151.787 6.518a5.749 5.749 0 0 0-7.604-2.885 5.748 5.748 0 0 0-2.885 7.603 5.749 5.749 0 0 0 10.489 0l2.3 1.374a8.262 8.262 0 0 1-7.508 4.627 8.367 8.367 0 0 1-8.357-8.377c.005-4.622 3.757-8.363 8.377-8.36a8.376 8.376 0 0 1 7.488 4.652l-2.3 1.366ZM160.35.73h3.28l5.321 16.271h-2.812l-1.206-3.764h-5.881L157.863 17h-2.839L160.35.732Zm3.976 10.02-2.325-7.068-2.325 7.068h4.65ZM172.807 17.002V3.312l-4.833.021V.731h12.316l.022 2.605-4.833-.022v13.69h-2.672V17Z" fill="#000"/><path d="M23.621 27.72h5.999a8.137 8.137 0 0 1 0 16.274H23.62V27.721Zm5.905 13.667a5.533 5.533 0 0 0 .143-11.064H26.295v11.064h3.231ZM41.52 27.723v16.271h12.406v-2.605h-9.732v-4.323h7.198v-2.418h-7.198v-4.322h9.732v-2.603H41.52Z" fill="#FF6B4C"/><path d="m71.887 27.723-4.996 10.803-4.974-10.803h-3.371v16.271h2.671l-.047-12.481 4.625 10.296h2.21l4.6-10.296-.022 12.481h2.649v-16.27h-3.347.002ZM94.741 35.882a8.334 8.334 0 0 1-8.392 8.272 8.334 8.334 0 0 1-8.272-8.392c.032-4.571 3.746-8.262 8.316-8.272a8.248 8.248 0 0 1 8.346 8.149v.24l.002.003Zm-2.651-.002a5.673 5.673 0 0 0-5.456-5.888 5.673 5.673 0 0 0-5.888 5.888 5.585 5.585 0 0 0 5.429 5.738c.073 0 .147.002.218 0a5.66 5.66 0 0 0 5.7-5.616v-.122M110.708 33.508a5.754 5.754 0 1 0-2.89 7.606 5.753 5.753 0 0 0 2.89-2.89l2.302 1.374a8.265 8.265 0 0 1-7.507 4.624 8.368 8.368 0 1 1 7.507-12.085l-2.302 1.369v.002ZM121.375 27.72a5.146 5.146 0 0 1 5.345 5.324 4.924 4.924 0 0 1-3.487 4.718l3.905 6.225h-3.02l-3.394-5.6h-2.44v5.6h-2.672V27.72h5.765-.002Zm-3.091 8.253h2.511c2.091 0 3.256-1.303 3.256-2.93 0-1.626-1.189-2.904-3.256-2.904h-2.511v5.836-.002ZM135.692 30.675l2.323 7.065h-4.645l2.322-7.065Zm-1.648-2.952-5.323 16.271h2.838l1.189-3.767h5.881l1.209 3.767h2.811l-5.322-16.27h-3.283ZM141.524 27.723v2.603l4.834-.022v13.69h2.673v-13.69l4.832.022-.022-2.603h-12.32.003ZM159.251 27.72h-2.671v16.272h2.671V27.72ZM162.806 27.723v16.271h9.942v-2.605h-7.276v-4.323h6.461v-2.418h-6.461v-4.322h7.276v-2.603h-9.942ZM185.606.73h-2.673v16.271h2.673V.732ZM204.862 8.892A8.332 8.332 0 1 1 196.519.5a8.25 8.25 0 0 1 8.343 8.154v.238Zm-2.647-.002a5.676 5.676 0 1 0-11.343 0 5.59 5.59 0 0 0 5.435 5.74c.072 0 .143.002.212 0a5.655 5.655 0 0 0 5.694-5.618v-.12M218.345.73v11.622L209.813.731h-2.344V17h2.676V5.496L218.672 17h2.327V.732h-2.654ZM48.584 25.045h5.345v-2.672l-5.345 2.672Z" fill="#000"/><path d="M8.948 37.118a3.083 3.083 0 0 0-3.276-2.86 3.13 3.13 0 0 0-3.3 2.86H8.95h-.002Zm-6.488 1.86c.258 1.65 1.767 3.02 4.119 3.02a12.42 12.42 0 0 0 3.602-.51l.558 2.09c-1.443.46-2.949.679-4.463.652a6.02 6.02 0 0 1-6.271-5.753C0 38.381 0 38.283 0 38.187c0-3.16 2.187-6.043 5.652-6.043 3.465 0 5.905 2.93 5.51 6.834H2.46ZM12.66 28.935h2.465v3.438h3.16v2.416l-3.16-.023v5.743a1.138 1.138 0 0 0 1.283 1.232 5.307 5.307 0 0 0 1.791-.325l.487 2.325a7 7 0 0 1-2.718.489c-2.187 0-3.465-1.231-3.465-3.394l.16-11.899-.003-.002Z" fill="#000" fill-opacity=".5"/></svg>
