<svg xmlns="http://www.w3.org/2000/svg" viewBox="0 0 552 121.3"><defs><style>.cls-1{fill:#ff6b4c;}</style></defs><path class="cls-1" d="M191.9,25.7a16,16,0,1,0-8,21.1,15.62,15.62,0,0,0,8-8l6.4,3.8a23,23,0,0,1-20.8,12.8,23.2,23.2,0,1,1,20.8-33.5Z" transform="translate(-154.3 -9)"/><path class="cls-1" d="M248.2,32.3a23,23,0,1,1,0-.7v.7m-7.4,0a15.76,15.76,0,1,0-31.5-1.1v1.1a15.46,15.46,0,0,0,15.1,15.9h.6a15.66,15.66,0,0,0,15.8-15.6v-.3" transform="translate(-154.3 -9)"/><path d="M255.4,54.8V9.7h9.3l13.8,30,13.9-30h9.3V54.8h-7.3l.1-34.6L281.7,48.8h-6.1L262.8,20.2l.1,34.6Z" transform="translate(-154.3 -9)"/><path d="M312.3,54.8V9.7h9.4l13.8,30,13.9-30h9.3V54.8h-7.4l.1-34.6L338.6,48.8h-6.1L319.7,20.2l.1,34.6Z" transform="translate(-154.3 -9)"/><path d="M368.9,37.4V9.7h7.4V36.2c0,8.8,3.2,12.1,10.2,12.1s10.3-3.2,10.3-12.1V9.7h7.4V37.4c0,11.6-6.3,18.1-17.6,18.1-11.6,0-17.7-6.5-17.7-18.1" transform="translate(-154.3 -9)"/><path d="M413.8,9.7h6.5L444,41.9V9.7h7.4V54.9h-6.5L421.2,23V54.9h-7.4Z" transform="translate(-154.3 -9)"/><rect x="307.1" y="0.7" width="7.4" height="45.1"/><path d="M514.2,25.7a16,16,0,1,0-8,21.1,15.62,15.62,0,0,0,8-8l6.4,3.8a23,23,0,0,1-20.8,12.8,23.2,23.2,0,1,1,20.8-33.5Z" transform="translate(-154.3 -9)"/><path d="M537.9,9.7H547l14.8,45.1H554l-3.3-10.4H534.4L531,54.8h-7.9L537.9,9.7ZM549,37.5l-6.4-19.6-6.4,19.6Z" transform="translate(-154.3 -9)"/><path d="M572.5,54.8v-38l-13.4.1V9.7h34.2l.1,7.2L580,16.8v38Z" transform="translate(-154.3 -9)"/><path class="cls-1" d="M158.5,84.6h16.6a22.6,22.6,0,0,1,0,45.2H158.5Zm16.4,37.9a15.35,15.35,0,0,0,.3-30.7h-9.4v30.7Z" transform="translate(-154.3 -9)"/><path class="cls-1" d="M208.2,84.6v45.1h34.4v-7.2h-27v-12h20v-6.7h-20v-12h27V84.6Z" transform="translate(-154.3 -9)"/><path d="M292.4,84.6l-13.9,30-13.8-30h-9.4v45.1h7.4l-.1-34.6,12.8,28.6h6.1l12.8-28.6-.1,34.6h7.4V84.6Z" transform="translate(-154.3 -9)"/><path d="M355.9,107.2a23.15,23.15,0,1,1-23.2-23.3,23,23,0,0,1,23.2,22.6v.7m-7.4,0a15.71,15.71,0,0,0-31.4-1.2v1.2a15.46,15.46,0,0,0,15.1,15.9h.6a15.66,15.66,0,0,0,15.8-15.6.37.37,0,0,1-.1-.3" transform="translate(-154.3 -9)"/><path d="M400.2,100.6a16,16,0,1,0,0,13.1l6.4,3.8a23,23,0,0,1-20.8,12.8,23.25,23.25,0,1,1,20.9-33.6l-6.5,3.9Z" transform="translate(-154.3 -9)"/><path d="M429.8,84.6a14.22,14.22,0,0,1,14.8,13.7v1.1a13.71,13.71,0,0,1-9.7,13.1l10.8,17.3h-8.4l-9.4-15.5h-6.8v15.5h-7.4V84.6Zm-8.6,22.9h7c5.8,0,9-3.6,9-8.1s-3.3-8.1-9-8.1h-7Z" transform="translate(-154.3 -9)"/><path d="M469.5,92.8l6.4,19.6H463Zm-4.6-8.2-14.8,45.1H458l3.3-10.5h16.3l3.4,10.5h7.8L474,84.6Z" transform="translate(-154.3 -9)"/><path d="M485.7,84.6v7.2l13.4-.1v38h7.4v-38l13.4.1-.1-7.2Z" transform="translate(-154.3 -9)"/><rect x="373.2" y="75.6" width="7.4" height="45.2"/><path d="M544.7,84.6v45.1h27.6v-7.2H552.1v-12H570v-6.7H552.1v-12h20.2V84.6Z" transform="translate(-154.3 -9)"/><rect x="446.3" y="0.7" width="7.4" height="45.1"/><path d="M661.4,32.3A23.15,23.15,0,1,1,638.2,9a22.88,22.88,0,0,1,23.1,22.6,2,2,0,0,1,.1.7m-7.3,0a15.76,15.76,0,1,0-31.5-1.1v1.1a15.46,15.46,0,0,0,15.1,15.9h.6a15.66,15.66,0,0,0,15.8-15.6v-.3" transform="translate(-154.3 -9)"/><path d="M698.9,9.7V42L675.2,9.7h-6.5V54.8h7.4V22.9l23.7,31.9h6.5V9.7Z" transform="translate(-154.3 -9)"/><path d="M227.8,77.1h14.8V69.7Z" transform="translate(-154.3 -9)"/><path d="M615.6,94.66a6.46,6.46,0,0,0-6.8-6,6.54,6.54,0,0,0-6.9,6Zm-13.5,3.9c.5,3.4,3.7,6.3,8.6,6.3a23.91,23.91,0,0,0,7.5-1.1l1.2,4.4a29.13,29.13,0,0,1-9.3,1.4,12.6,12.6,0,0,1-13.1-12V97c0-6.6,4.6-12.6,11.8-12.6,7.5,0,12.3,6.1,11.5,14.2Z" transform="translate(-154.3 -9)"/><path d="M623.3,77.66h5.1v7.2H635v5h-6.6v12a2.37,2.37,0,0,0,2.1,2.6h.5a9.37,9.37,0,0,0,3.7-.7l1,4.8a13.73,13.73,0,0,1-5.7,1c-4.6,0-7.2-2.6-7.2-7.1l.5-24.8Z" transform="translate(-154.3 -9)"/></svg>
