<?xml version="1.0" encoding="UTF-8"?>
<svg overflow="visible" baseProfile="tiny" version="1.2" viewBox="0 0 708.6 137.4" xml:space="preserve" xmlns="http://www.w3.org/2000/svg">

	<path d="m191.9 25.7c-3.6-8-13.1-11.6-21.1-8s-11.6 13.1-8 21.1 13.1 11.6 21.1 8c3.6-1.6 6.4-4.4 8-8l6.4 3.8c-3.9 7.9-12 12.9-20.8 12.8-12.8 0-23.2-10.4-23.2-23.2s10.4-23.2 23.2-23.2c8.8 0 16.9 5 20.8 12.9l-6.4 3.8z" fill="#FF6B4C"/>
	<path d="m248.2 32.3c-0.1 12.8-10.5 23-23.3 23-12.8-0.1-23-10.5-23-23.3 0.1-12.7 10.4-22.9 23.1-23 12.6-0.1 23 10 23.2 22.6v0.7m-7.4 0c0.3-8.7-6.5-16-15.2-16.3s-16 6.5-16.3 15.2v1.1c-0.2 8.6 6.5 15.7 15.1 15.9h0.6c8.7 0.1 15.7-6.9 15.8-15.6v-0.3" fill="#FF6B4C"/>
	<path d="m255.4 54.8v-45.1h9.3l13.8 30 13.9-30h9.3v45.1h-7.3l0.1-34.6-12.8 28.6h-6.1l-12.8-28.6 0.1 34.6h-7.5z"/>
	<path d="m312.3 54.8v-45.1h9.4l13.8 30 13.9-30h9.3v45.1h-7.4l0.1-34.6-12.8 28.6h-6.1l-12.8-28.6 0.1 34.6h-7.5z"/>
	<path d="m368.9 37.4v-27.7h7.4v26.5c0 8.8 3.2 12.1 10.2 12.1s10.3-3.2 10.3-12.1v-26.5h7.4v27.7c0 11.6-6.3 18.1-17.6 18.1-11.6 0-17.7-6.5-17.7-18.1"/>
	<path d="m413.8 9.7h6.5l23.7 32.2v-32.2h7.4v45.2h-6.5l-23.7-31.9v31.9h-7.4v-45.2z"/>
	<rect x="461.4" y="9.7" width="7.4" height="45.1"/>
	<path d="m514.2 25.7c-3.6-8-13.1-11.6-21.1-8s-11.6 13.1-8 21.1 13.1 11.6 21.1 8c3.6-1.6 6.4-4.4 8-8l6.4 3.8c-3.9 7.9-12 12.9-20.8 12.8-12.8 0-23.2-10.4-23.2-23.2s10.4-23.2 23.2-23.2c8.8 0 16.9 5 20.8 12.9l-6.4 3.8z"/>
	<path d="m537.9 9.7h9.1l14.8 45.1h-7.8l-3.3-10.4h-16.3l-3.4 10.4h-7.9l14.8-45.1zm11.1 27.8-6.4-19.6-6.4 19.6h12.8z"/>
	<path d="m572.5 54.8v-38l-13.4 0.1v-7.2h34.2l0.1 7.2-13.4-0.1v38h-7.5z"/>
	<path d="m158.5 84.6h16.6c12.5 0 22.6 10.1 22.6 22.6s-10.1 22.6-22.6 22.6h-16.6v-45.2zm16.4 37.9c8.5 0.1 15.4-6.7 15.5-15.2s-6.7-15.4-15.2-15.5h-0.4-9v30.7h9.1z" fill="#FF6B4C"/>
	<path d="m208.2 84.6v45.1h34.4v-7.2h-27v-12h20v-6.7h-20v-12h27v-7.2h-34.4z" fill="#FF6B4C"/>
	<path d="m292.4 84.6-13.9 30-13.8-30h-9.4v45.1h7.4l-0.1-34.6 12.8 28.6h6.1l12.8-28.6-0.1 34.6h7.4v-45.1h-9.2z"/>
	<path d="m355.9 107.2c-0.1 12.8-10.5 23-23.3 23-12.8-0.1-23-10.5-23-23.3 0.1-12.7 10.4-22.9 23.1-23 12.6-0.2 23 10 23.2 22.6v0.7m-7.4 0c0.3-8.7-6.4-16-15.1-16.3s-16 6.4-16.3 15.1v1.2c-0.2 8.6 6.5 15.7 15.1 15.9h0.6c8.7 0.1 15.7-6.9 15.8-15.6-0.1-0.1-0.1-0.2-0.1-0.3"/>
	<path d="m400.2 100.6c-3.6-8-13.1-11.6-21.1-8s-11.6 13.1-8 21.1 13.1 11.6 21.1 8c3.6-1.6 6.4-4.5 8-8l6.4 3.8c-3.9 7.9-12 12.9-20.8 12.8-12.8 0-23.2-10.4-23.2-23.3s10.4-23.2 23.3-23.2c8.8 0 16.9 5 20.8 12.9l-6.5 3.9z"/>
	<path d="m429.8 84.6c7.9-0.3 14.5 5.8 14.8 13.7v1.1c0 6-3.9 11.3-9.7 13.1l10.8 17.3h-8.4l-9.4-15.5h-6.8v15.5h-7.4v-45.2h16.1zm-8.6 22.9h7c5.8 0 9-3.6 9-8.1 0-4.4-3.3-8.1-9-8.1h-7v16.2z"/>
	<path d="m469.5 92.8 6.4 19.6h-12.9l6.5-19.6zm-4.6-8.2-14.8 45.1h7.9l3.3-10.5h16.3l3.4 10.5h7.8l-14.8-45.1h-9.1z"/>
	<path d="m485.7 84.6v7.2l13.4-0.1v38h7.4v-38l13.4 0.1-0.1-7.2h-34.1z"/>
	<rect x="527.5" y="84.6" width="7.4" height="45.2"/>
	<path d="m544.7 84.6v45.1h27.6v-7.2h-20.2v-12h17.9v-6.7h-17.9v-12h20.2v-7.2h-27.6z"/>
	<rect x="600.6" y="9.7" width="7.4" height="45.1"/>
	<path d="m661.4 32.3c-0.1 12.8-10.5 23-23.3 23-12.8-0.1-23-10.5-23-23.3 0.1-12.7 10.4-22.9 23.1-23 12.6-0.1 23 10 23.1 22.6 0.1 0.3 0.1 0.5 0.1 0.7m-7.3 0c0.3-8.7-6.5-16-15.2-16.3s-16 6.5-16.3 15.2v1.1c-0.2 8.6 6.5 15.7 15.1 15.9h0.6c8.7 0.1 15.7-6.9 15.8-15.6v-0.3"/>
	<path d="m698.9 9.7v32.3l-23.7-32.3h-6.5v45.1h7.4v-31.9l23.7 31.9h6.5v-45.1h-7.4z"/>
	<path d="m227.8 77.1h14.8v-7.4l-14.8 7.4z"/>

<g transform="translate(0 31.058)">
	<path d="m615.6 63.6c-0.2-3.5-3.3-6.2-6.8-6-3.5-0.2-6.6 2.4-6.9 6h13.7zm-13.5 3.9c0.5 3.4 3.7 6.3 8.6 6.3 2.5 0 5.1-0.3 7.5-1.1l1.2 4.4c-3 1-6.1 1.4-9.3 1.4-6.9 0.3-12.8-5.1-13.1-12v-0.6c0-6.6 4.6-12.6 11.8-12.6 7.5 0 12.3 6.1 11.5 14.2h-18.2z"/>
	<path d="m623.3 46.6h5.1v7.2h6.6v5h-6.6v12c-0.1 1.3 0.8 2.5 2.1 2.6h0.5c1.3 0 2.5-0.2 3.7-0.7l1 4.8c-1.8 0.7-3.7 1.1-5.7 1-4.6 0-7.2-2.6-7.2-7.1l0.5-24.8z"/>
</g>
<path d="m123.4 3.7h-120v130h130v-130h-10zm-110 50v-40h50v10h-40v40h-10v-10zm40 70v-40h-30v40h-10v-50h40v10h10v40h-10zm70-40h-40v20h30v10h-30v10h-10v-50h50v10zm0-60v40h-10v-40h-30v40h-10v-50h50v10z" fill="#FF6B4C"/>
</svg>
