<svg width="26" height="26" viewBox="0 0 26 26" fill="none" xmlns="http://www.w3.org/2000/svg">
<rect x="24" width="2" height="2" transform="rotate(90 24 0)" fill="#FF6444"/>
<rect x="26" y="6" width="2" height="2" transform="rotate(90 26 6)" fill="#FF6444"/>
<rect x="2" y="6" width="2" height="2" transform="rotate(90 2 6)" fill="#FF6444"/>
<rect x="26" y="10" width="2" height="2" transform="rotate(90 26 10)" fill="#FF6444"/>
<rect x="2" y="10" width="2" height="2" transform="rotate(90 2 10)" fill="#FF6444"/>
<rect x="26" y="14" width="2" height="2" transform="rotate(90 26 14)" fill="#FF6444"/>
<rect x="2" y="14" width="2" height="2" transform="rotate(90 2 14)" fill="#FF6444"/>
<rect x="26" y="18" width="2" height="2" transform="rotate(90 26 18)" fill="#FF6444"/>
<rect x="2" y="18" width="2" height="2" transform="rotate(90 2 18)" fill="#FF6444"/>
<rect x="26" y="4" width="2" height="2" transform="rotate(90 26 4)" fill="#FF6444"/>
<rect x="2" y="4" width="2" height="2" transform="rotate(90 2 4)" fill="#FF6444"/>
<rect x="26" y="8" width="2" height="2" transform="rotate(90 26 8)" fill="#FF6444"/>
<rect x="2" y="8" width="2" height="2" transform="rotate(90 2 8)" fill="#FF6444"/>
<rect x="26" y="12" width="2" height="2" transform="rotate(90 26 12)" fill="#FF6444"/>
<rect x="2" y="12" width="2" height="2" transform="rotate(90 2 12)" fill="#FF6444"/>
<rect x="26" y="16" width="2" height="2" transform="rotate(90 26 16)" fill="#FF6444"/>
<rect x="2" y="16" width="2" height="2" transform="rotate(90 2 16)" fill="#FF6444"/>
<rect x="26" y="20" width="2" height="2" transform="rotate(90 26 20)" fill="#FF6444"/>
<rect x="2" y="20" width="2" height="2" transform="rotate(90 2 20)" fill="#FF6444"/>
<rect x="2" y="22" width="2" height="2" transform="rotate(90 2 22)" fill="#FF6444"/>
<rect x="26" y="22" width="2" height="2" transform="rotate(90 26 22)" fill="#FF6444"/>
<rect x="2" width="2" height="2" transform="rotate(90 2 0)" fill="#FF6444"/>
<rect x="26" width="2" height="2" transform="rotate(90 26 0)" fill="#FF6444"/>
<rect x="2" y="24" width="2" height="2" transform="rotate(90 2 24)" fill="#FF6444"/>
<rect x="26" y="24" width="2" height="2" transform="rotate(90 26 24)" fill="#FF6444"/>
<rect x="2" y="2" width="2" height="2" transform="rotate(90 2 2)" fill="#FF6444"/>
<rect x="26" y="2" width="2" height="2" transform="rotate(90 26 2)" fill="#FF6444"/>
<rect x="24" y="24" width="2" height="2" transform="rotate(90 24 24)" fill="#FF6444"/>
<rect x="22" width="2" height="2" transform="rotate(90 22 0)" fill="#FF6444"/>
<rect x="22" y="24" width="2" height="2" transform="rotate(90 22 24)" fill="#FF6444"/>
<rect x="18" y="8" width="2" height="2" transform="rotate(90 18 8)" fill="#FF6444"/>
<rect x="18" y="16" width="2" height="2" transform="rotate(90 18 16)" fill="#FF6444"/>
<rect x="16" y="10" width="2" height="2" transform="rotate(90 16 10)" fill="#FF6444"/>
<rect x="16" y="14" width="2" height="2" transform="rotate(90 16 14)" fill="#FF6444"/>
<rect x="14" y="12" width="2" height="2" transform="rotate(90 14 12)" fill="#FF6444"/>
<rect x="12" y="10" width="2" height="2" transform="rotate(90 12 10)" fill="#FF6444"/>
<rect x="12" y="14" width="2" height="2" transform="rotate(90 12 14)" fill="#FF6444"/>
<rect x="10" y="8" width="2" height="2" transform="rotate(90 10 8)" fill="#FF6444"/>
<rect x="10" y="16" width="2" height="2" transform="rotate(90 10 16)" fill="#FF6444"/>
<rect x="6" width="2" height="2" transform="rotate(90 6 0)" fill="#FF6444"/>
<rect x="6" y="24" width="2" height="2" transform="rotate(90 6 24)" fill="#FF6444"/>
<rect x="14" width="2" height="2" transform="rotate(90 14 0)" fill="#FF6444"/>
<rect x="14" y="24" width="2" height="2" transform="rotate(90 14 24)" fill="#FF6444"/>
<rect x="8" width="2" height="2" transform="rotate(90 8 0)" fill="#FF6444"/>
<rect x="8" y="24" width="2" height="2" transform="rotate(90 8 24)" fill="#FF6444"/>
<rect x="16" width="2" height="2" transform="rotate(90 16 0)" fill="#FF6444"/>
<rect x="16" y="24" width="2" height="2" transform="rotate(90 16 24)" fill="#FF6444"/>
<rect x="10" width="2" height="2" transform="rotate(90 10 0)" fill="#FF6444"/>
<rect x="10" y="24" width="2" height="2" transform="rotate(90 10 24)" fill="#FF6444"/>
<rect x="18" width="2" height="2" transform="rotate(90 18 0)" fill="#FF6444"/>
<rect x="18" y="24" width="2" height="2" transform="rotate(90 18 24)" fill="#FF6444"/>
<rect x="20" width="2" height="2" transform="rotate(90 20 0)" fill="#FF6444"/>
<rect x="20" y="24" width="2" height="2" transform="rotate(90 20 24)" fill="#FF6444"/>
<rect x="4" width="2" height="2" transform="rotate(90 4 0)" fill="#FF6444"/>
<rect x="12" width="2" height="2" transform="rotate(90 12 0)" fill="#FF6444"/>
<rect x="12" y="24" width="2" height="2" transform="rotate(90 12 24)" fill="#FF6444"/>
<rect x="4" y="24" width="2" height="2" transform="rotate(90 4 24)" fill="#FF6444"/>
</svg>
