<svg viewBox="0 0 26 26" fill="none" xmlns="http://www.w3.org/2000/svg"><path fill="#000" d="M18 8v2h-2V8zM18 16v2h-2v-2zM16 10v2h-2v-2zM16 14v2h-2v-2zM14 12v2h-2v-2zM12 10v2h-2v-2zM12 14v2h-2v-2zM10 8v2H8V8zM10 16v2H8v-2zM24 0v2h-2V0zM26 6v2h-2V6zM2 6v2H0V6zM26 10v2h-2v-2zM2 10v2H0v-2zM26 14v2h-2v-2zM2 14v2H0v-2zM26 18v2h-2v-2zM2 18v2H0v-2zM26 4v2h-2V4zM2 4v2H0V4zM26 8v2h-2V8zM2 8v2H0V8zM26 12v2h-2v-2zM2 12v2H0v-2zM26 16v2h-2v-2zM2 16v2H0v-2zM26 20v2h-2v-2zM2 20v2H0v-2zM2 22v2H0v-2zM26 22v2h-2v-2zM2 0v2H0V0zM26 0v2h-2V0zM2 24v2H0v-2zM26 24v2h-2v-2zM2 2v2H0V2zM26 2v2h-2V2zM24 24v2h-2v-2zM22 0v2h-2V0zM22 24v2h-2v-2zM6 0v2H4V0zM6 24v2H4v-2zM14 0v2h-2V0zM14 24v2h-2v-2zM8 0v2H6V0zM8 24v2H6v-2zM16 0v2h-2V0zM16 24v2h-2v-2zM10 0v2H8V0zM10 24v2H8v-2zM18 0v2h-2V0zM18 24v2h-2v-2zM20 0v2h-2V0zM20 24v2h-2v-2zM4 0v2H2V0zM12 0v2h-2V0zM12 24v2h-2v-2zM4 24v2H2v-2z"/></svg>
