<svg width="16" height="17" viewBox="0 0 16 17" fill="none" xmlns="http://www.w3.org/2000/svg">
<path fill-rule="evenodd" clip-rule="evenodd" d="M3.60262 5.53256H0.303051V16.1591H3.60262V5.53256ZM3.87242 2.16646C3.87242 1.10995 3.0138 0.25 1.95892 0.25C0.897902 0.25 0.0454102 1.10995 0.0454102 2.16646C0.0454102 3.22297 0.897902 4.08292 1.95892 4.08292C3.0138 4.08292 3.87242 3.22297 3.87242 2.16646ZM8.83407 5.53256H5.68169V16.1591H8.97513V10.9011C8.97513 9.51904 9.23272 8.17383 10.95 8.17383C12.6427 8.17383 12.6611 9.7586 12.6611 10.9932V16.1591H15.9545V10.336C15.9545 7.47359 15.3351 5.27457 11.9987 5.27457C10.3919 5.27457 9.31858 6.15295 8.877 6.98833H8.83407V5.53256Z" fill="white"/>
</svg>
