<svg width="18" height="15" viewBox="0 0 18 15" fill="none" xmlns="http://www.w3.org/2000/svg">
<path fill-rule="evenodd" clip-rule="evenodd" d="M18 1.77548C17.3382 2.07658 16.6255 2.28016 15.8789 2.37231C16.6414 1.90299 17.227 1.16151 17.5023 0.27752C16.7886 0.711479 15.9986 1.0265 15.1567 1.1958C14.4832 0.459676 13.5238 0 12.4617 0C10.4222 0 8.76809 1.69512 8.76809 3.7867C8.76809 4.08458 8.80198 4.37281 8.86445 4.65033C5.79562 4.49282 3.07519 2.98414 1.25379 0.693264C0.935051 1.25259 0.753971 1.90299 0.753971 2.59733C0.753971 3.91099 1.40628 5.07036 2.3964 5.74862C1.79068 5.72934 1.22097 5.55897 0.72432 5.27502C0.72432 5.29109 0.72432 5.30716 0.72432 5.32324C0.72432 7.15765 1.99612 8.68776 3.6862 9.036C3.37593 9.12279 3.05083 9.16887 2.71303 9.16887C2.47582 9.16887 2.24391 9.1453 2.01836 9.10029C2.48853 10.6047 3.85245 11.6998 5.46841 11.7308C4.20402 12.7456 2.61137 13.351 0.881045 13.351C0.58348 13.351 0.289093 13.3338 0 13.2984C1.63396 14.3732 3.57501 15 5.66114 15C12.4532 15 16.168 9.22994 16.168 4.22602C16.168 4.061 16.1638 3.89921 16.1574 3.73634C16.8786 3.20273 17.5055 2.53518 18 1.77656V1.77548Z" fill="white"/>
</svg>
